<?xml version="1.0" encoding="UTF-8"?>
<svg version="1.1" xmlns="http://www.w3.org/2000/svg" width="1482" height="1253">
<path d="M0 0 C1.83214216 1.66535405 3.65210077 3.34425427 5.45703125 5.0390625 C7.53166939 6.98062352 9.6537457 8.81416128 11.83203125 10.63671875 C52.30123616 45.98533039 74.95624422 102.39781053 79.45703125 154.88671875 C80.84150707 177.491433 78.85646509 199.28228621 74.83203125 221.51171875 C67.70600796 261.01800839 67.95295132 299.11524218 77.83203125 338.26171875 C78.04166504 339.09445312 78.25129883 339.9271875 78.46728516 340.78515625 C88.96277815 381.24815002 110.98279615 418.2410794 139.83203125 448.26171875 C140.39937988 448.85629883 140.96672852 449.45087891 141.55126953 450.06347656 C150.08401441 458.96102554 158.90279356 466.95915969 168.83203125 474.26171875 C169.40276367 474.68791504 169.97349609 475.11411133 170.56152344 475.55322266 C179.30262851 482.06837796 188.35809569 487.87322435 197.83203125 493.26171875 C198.77973389 493.80844238 198.77973389 493.80844238 199.74658203 494.36621094 C229.73902379 511.53288763 263.2177517 520.56303006 297.33203125 524.69921875 C333.85615595 529.21605493 366.2186694 543.67855156 392.83203125 569.26171875 C393.30060547 569.70451172 393.76917969 570.14730469 394.25195312 570.60351562 C421.75218139 596.67330289 441.38657647 634.85551472 442.99316406 673.09716797 C443.36751369 708.48191386 443.36751369 708.48191386 439.83203125 722.26171875 C439.63335449 723.07672852 439.43467773 723.89173828 439.22998047 724.73144531 C433.52891983 747.74921074 423.75734031 768.7467784 408.83203125 787.26171875 C408.3834375 787.81859375 407.93484375 788.37546875 407.47265625 788.94921875 C380.05363519 822.69570621 341.49188884 843.72169668 298.20703125 848.51171875 C254.88065831 852.72894192 214.49825504 840.15112507 179.83203125 814.26171875 C148.73621822 791.2712078 112.76045219 776.34853783 74.83203125 769.26171875 C74.05311523 769.1009082 73.27419922 768.94009766 72.47167969 768.77441406 C43.31282879 762.85971616 9.8336404 764.26273565 -19.16796875 770.26171875 C-20.53284424 770.54257324 -20.53284424 770.54257324 -21.92529297 770.82910156 C-65.40226074 780.12323645 -106.94918827 801.20644776 -139.3828125 831.6640625 C-141.87089112 833.98464073 -144.40722856 836.2243021 -146.98046875 838.44921875 C-151.10050548 842.10492218 -154.63124733 846.04928227 -158.16796875 850.26171875 C-158.9671875 851.16148437 -159.76640625 852.06125 -160.58984375 852.98828125 C-195.74292076 892.84398106 -215.03451918 943.57385575 -220.796875 995.9453125 C-227.34491055 1054.27018139 -253.99117392 1108.86047934 -299.48046875 1146.82421875 C-348.4868945 1185.74730798 -407.70808072 1206.18616046 -470.58569336 1199.30981445 C-528.68083615 1192.06598781 -584.06186502 1163.75427636 -620.76171875 1117.4140625 C-621.55578125 1116.37378906 -622.34984375 1115.33351563 -623.16796875 1114.26171875 C-623.65910156 1113.61992676 -624.15023437 1112.97813477 -624.65625 1112.31689453 C-632.88614054 1101.48137259 -639.96704593 1090.36939803 -646.16796875 1078.26171875 C-646.74756348 1077.14724365 -646.74756348 1077.14724365 -647.33886719 1076.01025391 C-657.72462107 1055.86119493 -664.08345103 1034.5060199 -668.16796875 1012.26171875 C-668.40257812 1010.99972656 -668.6371875 1009.73773437 -668.87890625 1008.4375 C-673.55643813 978.71144592 -671.10574885 948.3858331 -664.16796875 919.26171875 C-663.89194824 918.09769531 -663.89194824 918.09769531 -663.61035156 916.91015625 C-654.19642053 878.62799677 -632.21387618 844.41910183 -605.16796875 816.26171875 C-603.8840625 814.9159375 -603.8840625 814.9159375 -602.57421875 813.54296875 C-596.80183976 807.62445358 -590.70061453 802.3238854 -584.16796875 797.26171875 C-583.62575684 796.83777832 -583.08354492 796.41383789 -582.52490234 795.97705078 C-549.81703907 770.56648542 -511.27615892 755.92080694 -470.43383789 750.56811523 C-410.23338569 742.66065823 -359.31823293 718.73818555 -315.16796875 677.26171875 C-314.51183594 676.648125 -313.85570312 676.03453125 -313.1796875 675.40234375 C-308.026639 670.42698658 -303.63032127 664.85215398 -299.16796875 659.26171875 C-298.30296886 658.21020841 -297.4370616 657.15944395 -296.5703125 656.109375 C-255.41351355 605.72275097 -236.69546607 538.5017611 -242.99072266 474.06347656 C-249.32022262 417.85209406 -272.99489141 366.34775949 -311.71484375 325.11865234 C-332.34886932 302.99424036 -348.02960443 276.73492948 -358.16796875 248.26171875 C-358.58103271 247.11703125 -358.58103271 247.11703125 -359.00244141 245.94921875 C-378.71655828 190.43122354 -374.39984771 128.14782893 -349.52099609 75.06933594 C-340.18192068 55.69016466 -328.49342893 38.28798642 -314.16796875 22.26171875 C-313.43296143 21.43414062 -313.43296143 21.43414062 -312.68310547 20.58984375 C-251.18220609 -48.36391293 -145.67806376 -73.74672616 0 0 Z " fill="#F2F2F3" transform="translate(671.16796875,52.73828125)"/>
<path d="M0 0 C1.13179687 0.59039062 2.26359375 1.18078125 3.4296875 1.7890625 C19.39941474 10.45623548 33.53466623 21.77915957 46.45605469 34.48681641 C47.80021286 35.80419344 49.16772339 37.09765999 50.5390625 38.38671875 C64.63256279 51.85771461 75.82675691 68.93160401 85 86 C85.33386719 86.61713867 85.66773438 87.23427734 86.01171875 87.87011719 C112.84290221 137.96013305 114.49718252 195.31378866 99.26171875 249.17578125 C81.93969114 310.60081709 88.32706312 373.18521608 119.27832031 429.31835938 C146.76645581 477.04597191 189.55515683 509.54212786 239.9375 530.125 C254.48557548 536.11850955 267.0257745 543.80800183 279 554 C279.99 554.83660156 280.98 555.67320312 282 556.53515625 C288.42137479 562.16277776 293.78933527 568.2523766 299 575 C299.71671875 575.86625 300.4334375 576.7325 301.171875 577.625 C326.10498789 608.74718347 333.75781039 649.29955774 329.53125 688.203125 C328.96198677 692.20484483 328.0509433 696.09989612 327 700 C326.80664062 700.7645752 326.61328125 701.52915039 326.4140625 702.31689453 C316.66577591 740.33972534 292.53995443 772.86103409 258.875 793.125 C235.77239303 806.55407586 210.55373256 813.43727313 183.8125 813.3125 C182.55018555 813.30758545 181.28787109 813.3026709 179.98730469 813.29760742 C140.14732977 812.80202213 104.29068619 795.941532 76.40991211 767.83178711 C57.27541226 747.93501653 44.92117602 722.79875672 39 696 C38.64808594 694.47052734 38.64808594 694.47052734 38.2890625 692.91015625 C35.31197697 677.87371702 35.73324661 662.70376262 37.4375 647.5625 C44.56861517 582.61493452 30.12515251 520.5795923 -11 469 C-21.20877767 456.38531123 -32.20521078 445.03925848 -45 435 C-45.95003906 434.22140625 -46.90007812 433.4428125 -47.87890625 432.640625 C-75.9732447 410.10774563 -109.5877858 396.86177144 -144.35913086 388.80639648 C-182.93970554 379.84709376 -216.35638031 362.41755905 -245 335 C-245.82951172 334.21931152 -245.82951172 334.21931152 -246.67578125 333.42285156 C-265.82778781 315.34084989 -279.88238549 293.77934214 -291 270 C-291.52078125 268.91074219 -292.0415625 267.82148438 -292.578125 266.69921875 C-304.31704002 240.90449758 -309.22717251 212.92724909 -309.25 184.75 C-309.25067474 183.99844635 -309.25134949 183.2468927 -309.25204468 182.4725647 C-309.2340185 169.77859647 -308.48042627 157.47956904 -306 145 C-305.82839355 144.13165527 -305.65678711 143.26331055 -305.47998047 142.36865234 C-297.64439253 104.0870087 -279.71913632 68.66289897 -252.47460938 40.52587891 C-251.45365211 39.46942478 -250.43976855 38.40610583 -249.43164062 37.33740234 C-231.3545968 18.18588668 -209.78817121 4.09905988 -186 -7 C-184.8759375 -7.53238281 -183.751875 -8.06476563 -182.59375 -8.61328125 C-124.67869612 -34.79683949 -55.38394906 -29.76700659 0 0 Z " fill="#F2F2F3" transform="translate(1152,123)"/>
</svg>
